<svg xmlns="http://www.w3.org/2000/svg" viewBox="0 0 68.24 68.24"><defs><style>.a{fill:#f1f0ef;}.b{fill:#b4bbbf;}.c{fill:#fff;}</style></defs><title>Middel 1</title><path class="a" d="M13.2,52.18a67.64,67.64,0,0,0,12.09-4.45,11.86,11.86,0,0,0,1.08-4.27h.11a13.88,13.88,0,0,1-3.34-7.33.82.82,0,0,1-.54.23c-.61,0-1.44-.88-2.33-4.3-1.12-4.28-.06-5.12.95-5.1a2.19,2.19,0,0,1,.43,0v0c-2.83-11.86,3.07-12.31,4-12.31h.12c.5-2.23,3.35-4.54,6.32-4.62a5.62,5.62,0,0,1,1.27.11,20.42,20.42,0,0,0,3.9.29c3.16,0,6.46-.38,6.46-.38a3.29,3.29,0,0,1-1.17,2.5c7.2,4.39,4.21,14.37,4.21,14.37V27a1.24,1.24,0,0,1,.47-.06c1,0,2.05.83.94,5.1-.88,3.39-1.7,4.29-2.32,4.3a.73.73,0,0,1-.46-.16,13.84,13.84,0,0,1-3.32,7.25s.19,3.08,1.26,4.54a75.5,75.5,0,0,0,11.91,4.18,8.46,8.46,0,0,1,4.83,4.06,34.12,34.12,0,1,0-51.72.25C9.94,53.95,11.8,52.54,13.2,52.18Z"/><path class="b" d="M34.12,68.24a34,34,0,0,0,26-12,8.46,8.46,0,0,0-4.83-4.06A75.5,75.5,0,0,1,43.35,48c-1.07-1.47-1.26-4.54-1.26-4.54a13.84,13.84,0,0,0,3.32-7.25.73.73,0,0,0,.46.16c.61,0,1.43-.91,2.32-4.3,1.11-4.27.07-5.11-.94-5.1a1.24,1.24,0,0,0-.47.06v-.09s3-10-4.21-14.37a3.29,3.29,0,0,0,1.17-2.5s-3.3.37-6.46.38a20.42,20.42,0,0,1-3.9-.29,5.62,5.62,0,0,0-1.27-.11c-3,.08-5.82,2.39-6.32,4.62h-.12c-.94,0-6.84.45-4,12.31v0a2.19,2.19,0,0,0-.43,0c-1,0-2.07.82-.95,5.1.89,3.42,1.72,4.3,2.33,4.3a.82.82,0,0,0,.54-.23,13.88,13.88,0,0,0,3.34,7.33h-.11a11.86,11.86,0,0,1-1.08,4.27A67.64,67.64,0,0,1,13.2,52.18c-1.4.36-3.26,1.76-4.83,4.31A34,34,0,0,0,34.12,68.24Z"/><path class="c" d="M29,23.61a8.93,8.93,0,0,1,4.93-1.29,10.62,10.62,0,0,1,6.38,1.84,6.28,6.28,0,0,1,2.54,5.44,6.15,6.15,0,0,1-1.1,3.72,12.66,12.66,0,0,1-2.48,2.35l-1.2.93a3.66,3.66,0,0,0-1.31,1.79,7.53,7.53,0,0,0-.22,2H31.93a13.39,13.39,0,0,1,.54-4,7,7,0,0,1,2.27-2.52l1.24-1a4.33,4.33,0,0,0,1-1,3.44,3.44,0,0,0,.68-2.06,4,4,0,0,0-.75-2.35,3.16,3.16,0,0,0-2.76-1.06,3,3,0,0,0-2.79,1.31,5,5,0,0,0-.82,2.72H25.61Q25.82,25.64,29,23.61Zm2.82,19.1H36.9v4.91H31.82Z"/></svg>